<svg width="100%" height="100%" viewBox="0 0 18 18"  xmlns="http://www.w3.org/2000/svg">
<g id="Frame 102171">
<g id="Union">
<path fill-rule="evenodd" clip-rule="evenodd" d="M12.6326 4.45019L9.29481 1.11232C9.21737 1.03494 9.11394 0.992434 9.00351 0.992677C8.8935 0.992434 8.79002 1.03494 8.71251 1.11232L5.37166 4.4533C5.29439 4.5305 5.25183 4.63355 5.25183 4.74344C5.25183 4.85333 5.29439 4.95632 5.37166 5.03358L5.61735 5.2794C5.69467 5.3566 5.79766 5.39922 5.90761 5.39922C6.01744 5.39922 6.12043 5.3566 6.19769 5.2794L8.43604 3.04105V10.4373C8.43604 10.6444 8.60394 10.8123 8.81107 10.8123H9.1861C9.39322 10.8123 9.56113 10.6444 9.56113 10.4373V3.03083L11.8066 5.27629C11.9665 5.43624 12.2267 5.43624 12.3869 5.27629L12.6326 5.03047C12.7099 4.95327 12.7524 4.85022 12.7524 4.74033C12.7524 4.63045 12.7099 4.52739 12.6326 4.45019Z" fill="current"/>
<path d="M9.29481 1.11232L9.4274 0.979728L9.42735 0.979675L9.29481 1.11232ZM12.6326 4.45019L12.5 4.58278L12.5001 4.58283L12.6326 4.45019ZM9.00351 0.992677L9.00309 1.18019L9.00392 1.18019L9.00351 0.992677ZM8.71251 1.11232L8.58002 0.979623L8.57992 0.97973L8.71251 1.11232ZM5.37166 4.4533L5.5042 4.58594L5.50425 4.58589L5.37166 4.4533ZM5.37166 5.03358L5.50428 4.90102L5.50425 4.90099L5.37166 5.03358ZM5.61735 5.2794L5.48472 5.41196L5.48486 5.41209L5.61735 5.2794ZM6.19769 5.2794L6.33023 5.41204L6.33029 5.41199L6.19769 5.2794ZM8.43604 3.04105H8.62355V2.58835L8.30344 2.90846L8.43604 3.04105ZM9.56113 3.03083L9.69372 2.89824L9.37361 2.57813V3.03083H9.56113ZM11.8066 5.27629L11.9392 5.14372L11.9392 5.14369L11.8066 5.27629ZM12.3869 5.27629L12.5194 5.40895L12.5195 5.40886L12.3869 5.27629ZM12.6326 5.03047L12.5001 4.89783L12.5 4.8979L12.6326 5.03047ZM9.16222 1.24491L12.5 4.58278L12.7652 4.3176L9.4274 0.979728L9.16222 1.24491ZM9.00392 1.18019C9.06495 1.18006 9.1204 1.20313 9.16227 1.24497L9.42735 0.979675C9.31433 0.866744 9.16294 0.80481 9.0031 0.805162L9.00392 1.18019ZM8.845 1.24502C8.88701 1.20307 8.94258 1.18006 9.00309 1.18019L9.00392 0.805162C8.84442 0.80481 8.69302 0.866804 8.58002 0.979623L8.845 1.24502ZM5.50425 4.58589L8.84511 1.24491L8.57992 0.97973L5.23906 4.32071L5.50425 4.58589ZM5.43935 4.74344C5.43935 4.68298 5.46237 4.62774 5.5042 4.58594L5.23912 4.32065C5.12642 4.43326 5.06432 4.58413 5.06432 4.74344H5.43935ZM5.50425 4.90099C5.46234 4.85908 5.43935 4.80386 5.43935 4.74344H5.06432C5.06432 4.90279 5.12645 5.05356 5.23906 5.16618L5.50425 4.90099ZM5.74997 5.14683L5.50428 4.90102L5.23903 5.16614L5.48472 5.41196L5.74997 5.14683ZM5.90761 5.21171C5.84719 5.21171 5.79189 5.18869 5.74983 5.1467L5.48486 5.41209C5.59745 5.5245 5.74814 5.58674 5.90761 5.58674V5.21171ZM6.06515 5.14675C6.02317 5.1887 5.96789 5.21171 5.90761 5.21171V5.58674C6.06698 5.58674 6.2177 5.52449 6.33023 5.41204L6.06515 5.14675ZM8.30344 2.90846L6.0651 5.1468L6.33029 5.41199L8.56863 3.17365L8.30344 2.90846ZM8.62355 10.4373V3.04105H8.24852V10.4373H8.62355ZM8.81107 10.6248C8.7075 10.6248 8.62355 10.5408 8.62355 10.4373H8.24852C8.24852 10.748 8.50038 10.9998 8.81107 10.9998V10.6248ZM9.1861 10.6248H8.81107V10.9998H9.1861V10.6248ZM9.37361 10.4373C9.37361 10.5408 9.28966 10.6248 9.1861 10.6248V10.9998C9.49678 10.9998 9.74864 10.748 9.74864 10.4373H9.37361ZM9.37361 3.03083V10.4373H9.74864V3.03083H9.37361ZM11.9392 5.14369L9.69372 2.89824L9.42853 3.16343L11.674 5.40888L11.9392 5.14369ZM12.2543 5.14362C12.1674 5.23049 12.0258 5.23035 11.9392 5.14372L11.674 5.40885C11.9071 5.64212 12.2861 5.64198 12.5194 5.40895L12.2543 5.14362ZM12.5 4.8979L12.2543 5.14371L12.5195 5.40886L12.7652 5.16305L12.5 4.8979ZM12.5649 4.74033C12.5649 4.80079 12.5419 4.85603 12.5001 4.89783L12.7652 5.16312C12.8779 5.05051 12.94 4.89964 12.94 4.74033H12.5649ZM12.5001 4.58283C12.5419 4.62463 12.5649 4.67987 12.5649 4.74033H12.94C12.94 4.58102 12.8779 4.43015 12.7652 4.31754L12.5001 4.58283Z" fill="current"/>
</g>
<path id="Vector 1175 (Stroke)" fill-rule="evenodd" clip-rule="evenodd" d="M1.68604 7.31158C1.68604 6.89734 2.02185 6.56152 2.4361 6.56152H4.19874C4.36444 6.56152 4.49876 6.69585 4.49876 6.86155V7.38659C4.49876 7.55229 4.36444 7.68661 4.19874 7.68661H2.96114C2.87829 7.68661 2.81113 7.75378 2.81113 7.83663V13.3121C2.81113 13.7263 3.14694 14.0621 3.56119 14.0621H14.4371C14.8513 14.0621 15.1871 13.7263 15.1871 13.3121V7.83663C15.1871 7.75378 15.12 7.68661 15.0371 7.68661H13.7995C13.6338 7.68661 13.4995 7.55229 13.4995 7.38659V6.86155C13.4995 6.69585 13.6338 6.56152 13.7995 6.56152H15.5622C15.9764 6.56152 16.3122 6.89734 16.3122 7.31158V13.6871C16.3122 14.5156 15.6406 15.1872 14.8121 15.1872H3.18616C2.35766 15.1872 1.68604 14.5156 1.68604 13.6871V7.31158Z" fill="current" stroke="current" stroke-width="0.375031"/>
</g>
</svg>
